<svg width="40" height="62" viewBox="0 0 40 62" fill="none" xmlns="http://www.w3.org/2000/svg">
<path d="M40 10.8448C40 5.27919 35.4881 0.767334 29.9225 0.767334H20V20.9224H29.9225C35.4881 20.9224 40 16.4105 40 10.8448Z" fill="#FF7262"/>
<path d="M20 30.9999C20 25.477 24.4771 20.9224 30 20.9224C35.5228 20.9224 40 25.477 40 30.9999C40 36.5227 35.5228 41.0774 30 41.0774C24.4771 41.0774 20 36.5227 20 30.9999Z" fill="#1ABCFE"/>
<path d="M0 30.9999C0 25.4342 4.51186 20.9224 10.0775 20.9224H20V41.0774H10.0775C4.51185 41.0774 0 36.5655 0 30.9999Z" fill="#A259FF"/>
<path d="M0 10.8448C0 5.27919 4.51186 0.767334 10.0775 0.767334H20V20.9224H10.0775C4.51185 20.9224 0 16.4105 0 10.8448Z" fill="#F24E1E"/>
<path d="M0 51.1938C0 45.6282 4.51186 41.0774 10.0775 41.0774H20V51.2324C20 56.7553 15.5228 61.2324 10 61.2324C4.47715 61.2324 0 56.7167 0 51.1938Z" fill="#0ACF83"/>
</svg>
