<svg width="700" height="240" viewBox="0 0 700 240" fill="none" xmlns="http://www.w3.org/2000/svg">
<g filter="url(#filter0_dd_54_1859)">
<rect x="60" y="46" width="580" height="120" rx="8" fill="white"/>
<path d="M85.08 91C85.08 88.248 85.608 86.08 86.664 84.496C87.736 82.912 89.456 82.12 91.824 82.12C94.192 82.12 95.904 82.912 96.96 84.496C98.032 86.08 98.568 88.248 98.568 91C98.568 93.784 98.032 95.968 96.96 97.552C95.904 99.136 94.192 99.928 91.824 99.928C89.456 99.928 87.736 99.136 86.664 97.552C85.608 95.968 85.08 93.784 85.08 91ZM94.536 91C94.536 89.384 94.36 88.144 94.008 87.28C93.656 86.4 92.928 85.96 91.824 85.96C90.72 85.96 89.992 86.4 89.64 87.28C89.288 88.144 89.112 89.384 89.112 91C89.112 92.088 89.176 92.992 89.304 93.712C89.432 94.416 89.688 94.992 90.072 95.44C90.472 95.872 91.056 96.088 91.824 96.088C92.592 96.088 93.168 95.872 93.552 95.44C93.952 94.992 94.216 94.416 94.344 93.712C94.472 92.992 94.536 92.088 94.536 91ZM100.304 86.296V82.48H106.952V100H102.68V86.296H100.304Z" fill="#8053FF"/>
<path d="M138.64 85.49L134.932 98H132.61L129.982 88.532L127.192 98L124.888 98.018L121.342 85.49H123.52L126.112 95.678L128.92 85.49H131.224L133.834 95.624L136.444 85.49H138.64ZM141.376 86.768C141.004 86.768 140.692 86.642 140.44 86.39C140.188 86.138 140.062 85.826 140.062 85.454C140.062 85.082 140.188 84.77 140.44 84.518C140.692 84.266 141.004 84.14 141.376 84.14C141.736 84.14 142.042 84.266 142.294 84.518C142.546 84.77 142.672 85.082 142.672 85.454C142.672 85.826 142.546 86.138 142.294 86.39C142.042 86.642 141.736 86.768 141.376 86.768ZM142.384 88.082V98H140.332V88.082H142.384ZM147.473 89.756V95.246C147.473 95.618 147.557 95.888 147.725 96.056C147.905 96.212 148.205 96.29 148.625 96.29H149.885V98H148.265C147.341 98 146.633 97.784 146.141 97.352C145.649 96.92 145.403 96.218 145.403 95.246V89.756H144.233V88.082H145.403V85.616H147.473V88.082H149.885V89.756H147.473ZM156.906 87.92C157.662 87.92 158.334 88.082 158.922 88.406C159.522 88.73 159.99 89.21 160.326 89.846C160.674 90.482 160.848 91.25 160.848 92.15V98H158.814V92.456C158.814 91.568 158.592 90.89 158.148 90.422C157.704 89.942 157.098 89.702 156.33 89.702C155.562 89.702 154.95 89.942 154.494 90.422C154.05 90.89 153.828 91.568 153.828 92.456V98H151.776V84.68H153.828V89.234C154.176 88.814 154.614 88.49 155.142 88.262C155.682 88.034 156.27 87.92 156.906 87.92ZM167.767 98.162C166.831 98.162 165.985 97.952 165.229 97.532C164.473 97.1 163.879 96.5 163.447 95.732C163.015 94.952 162.799 94.052 162.799 93.032C162.799 92.024 163.021 91.13 163.465 90.35C163.909 89.57 164.515 88.97 165.283 88.55C166.051 88.13 166.909 87.92 167.857 87.92C168.805 87.92 169.663 88.13 170.431 88.55C171.199 88.97 171.805 89.57 172.249 90.35C172.693 91.13 172.915 92.024 172.915 93.032C172.915 94.04 172.687 94.934 172.231 95.714C171.775 96.494 171.151 97.1 170.359 97.532C169.579 97.952 168.715 98.162 167.767 98.162ZM167.767 96.38C168.295 96.38 168.787 96.254 169.243 96.002C169.711 95.75 170.089 95.372 170.377 94.868C170.665 94.364 170.809 93.752 170.809 93.032C170.809 92.312 170.671 91.706 170.395 91.214C170.119 90.71 169.753 90.332 169.297 90.08C168.841 89.828 168.349 89.702 167.821 89.702C167.293 89.702 166.801 89.828 166.345 90.08C165.901 90.332 165.547 90.71 165.283 91.214C165.019 91.706 164.887 92.312 164.887 93.032C164.887 94.1 165.157 94.928 165.697 95.516C166.249 96.092 166.939 96.38 167.767 96.38ZM183.926 88.082V98H181.874V96.83C181.55 97.238 181.124 97.562 180.596 97.802C180.08 98.03 179.528 98.144 178.94 98.144C178.16 98.144 177.458 97.982 176.834 97.658C176.222 97.334 175.736 96.854 175.376 96.218C175.028 95.582 174.854 94.814 174.854 93.914V88.082H176.888V93.608C176.888 94.496 177.11 95.18 177.554 95.66C177.998 96.128 178.604 96.362 179.372 96.362C180.14 96.362 180.746 96.128 181.19 95.66C181.646 95.18 181.874 94.496 181.874 93.608V88.082H183.926ZM189.027 89.756V95.246C189.027 95.618 189.111 95.888 189.279 96.056C189.459 96.212 189.759 96.29 190.179 96.29H191.439V98H189.819C188.895 98 188.187 97.784 187.695 97.352C187.203 96.92 186.957 96.218 186.957 95.246V89.756H185.787V88.082H186.957V85.616H189.027V88.082H191.439V89.756H189.027ZM197.322 92.996C197.322 92 197.526 91.118 197.934 90.35C198.354 89.582 198.918 88.988 199.626 88.568C200.346 88.136 201.138 87.92 202.002 87.92C202.782 87.92 203.46 88.076 204.036 88.388C204.624 88.688 205.092 89.066 205.44 89.522V88.082H207.51V98H205.44V96.524C205.092 96.992 204.618 97.382 204.018 97.694C203.418 98.006 202.734 98.162 201.966 98.162C201.114 98.162 200.334 97.946 199.626 97.514C198.918 97.07 198.354 96.458 197.934 95.678C197.526 94.886 197.322 93.992 197.322 92.996ZM205.44 93.032C205.44 92.348 205.296 91.754 205.008 91.25C204.732 90.746 204.366 90.362 203.91 90.098C203.454 89.834 202.962 89.702 202.434 89.702C201.906 89.702 201.414 89.834 200.958 90.098C200.502 90.35 200.13 90.728 199.842 91.232C199.566 91.724 199.428 92.312 199.428 92.996C199.428 93.68 199.566 94.28 199.842 94.796C200.13 95.312 200.502 95.708 200.958 95.984C201.426 96.248 201.918 96.38 202.434 96.38C202.962 96.38 203.454 96.248 203.91 95.984C204.366 95.72 204.732 95.336 205.008 94.832C205.296 94.316 205.44 93.716 205.44 93.032ZM216.933 89.558C217.281 89.078 217.755 88.688 218.355 88.388C218.967 88.076 219.645 87.92 220.389 87.92C221.265 87.92 222.057 88.13 222.765 88.55C223.473 88.97 224.031 89.57 224.439 90.35C224.847 91.118 225.051 92 225.051 92.996C225.051 93.992 224.847 94.886 224.439 95.678C224.031 96.458 223.467 97.07 222.747 97.514C222.039 97.946 221.253 98.162 220.389 98.162C219.621 98.162 218.937 98.012 218.337 97.712C217.749 97.412 217.281 97.028 216.933 96.56V98H214.881V84.68H216.933V89.558ZM222.963 92.996C222.963 92.312 222.819 91.724 222.531 91.232C222.255 90.728 221.883 90.35 221.415 90.098C220.959 89.834 220.467 89.702 219.939 89.702C219.423 89.702 218.931 89.834 218.463 90.098C218.007 90.362 217.635 90.746 217.347 91.25C217.071 91.754 216.933 92.348 216.933 93.032C216.933 93.716 217.071 94.316 217.347 94.832C217.635 95.336 218.007 95.72 218.463 95.984C218.931 96.248 219.423 96.38 219.939 96.38C220.467 96.38 220.959 96.248 221.415 95.984C221.883 95.708 222.255 95.312 222.531 94.796C222.819 94.28 222.963 93.68 222.963 92.996ZM228.124 86.768C227.752 86.768 227.44 86.642 227.188 86.39C226.936 86.138 226.81 85.826 226.81 85.454C226.81 85.082 226.936 84.77 227.188 84.518C227.44 84.266 227.752 84.14 228.124 84.14C228.484 84.14 228.79 84.266 229.042 84.518C229.294 84.77 229.42 85.082 229.42 85.454C229.42 85.826 229.294 86.138 229.042 86.39C228.79 86.642 228.484 86.768 228.124 86.768ZM229.132 88.082V98H227.08V88.082H229.132ZM235.823 87.92C236.591 87.92 237.269 88.076 237.857 88.388C238.457 88.688 238.925 89.066 239.261 89.522V88.082H241.331V98.162C241.331 99.074 241.139 99.884 240.755 100.592C240.371 101.312 239.813 101.876 239.081 102.284C238.361 102.692 237.497 102.896 236.489 102.896C235.145 102.896 234.029 102.578 233.141 101.942C232.253 101.318 231.749 100.466 231.629 99.386H233.663C233.819 99.902 234.149 100.316 234.653 100.628C235.169 100.952 235.781 101.114 236.489 101.114C237.317 101.114 237.983 100.862 238.487 100.358C239.003 99.854 239.261 99.122 239.261 98.162V96.506C238.913 96.974 238.439 97.37 237.839 97.694C237.251 98.006 236.579 98.162 235.823 98.162C234.959 98.162 234.167 97.946 233.447 97.514C232.739 97.07 232.175 96.458 231.755 95.678C231.347 94.886 231.143 93.992 231.143 92.996C231.143 92 231.347 91.118 231.755 90.35C232.175 89.582 232.739 88.988 233.447 88.568C234.167 88.136 234.959 87.92 235.823 87.92ZM239.261 93.032C239.261 92.348 239.117 91.754 238.829 91.25C238.553 90.746 238.187 90.362 237.731 90.098C237.275 89.834 236.783 89.702 236.255 89.702C235.727 89.702 235.235 89.834 234.779 90.098C234.323 90.35 233.951 90.728 233.663 91.232C233.387 91.724 233.249 92.312 233.249 92.996C233.249 93.68 233.387 94.28 233.663 94.796C233.951 95.312 234.323 95.708 234.779 95.984C235.247 96.248 235.739 96.38 236.255 96.38C236.783 96.38 237.275 96.248 237.731 95.984C238.187 95.72 238.553 95.336 238.829 94.832C239.117 94.316 239.261 93.716 239.261 93.032ZM250.754 89.558C251.102 89.078 251.576 88.688 252.176 88.388C252.788 88.076 253.466 87.92 254.21 87.92C255.086 87.92 255.878 88.13 256.586 88.55C257.294 88.97 257.852 89.57 258.26 90.35C258.668 91.118 258.872 92 258.872 92.996C258.872 93.992 258.668 94.886 258.26 95.678C257.852 96.458 257.288 97.07 256.568 97.514C255.86 97.946 255.074 98.162 254.21 98.162C253.442 98.162 252.758 98.012 252.158 97.712C251.57 97.412 251.102 97.028 250.754 96.56V98H248.702V84.68H250.754V89.558ZM256.784 92.996C256.784 92.312 256.64 91.724 256.352 91.232C256.076 90.728 255.704 90.35 255.236 90.098C254.78 89.834 254.288 89.702 253.76 89.702C253.244 89.702 252.752 89.834 252.284 90.098C251.828 90.362 251.456 90.746 251.168 91.25C250.892 91.754 250.754 92.348 250.754 93.032C250.754 93.716 250.892 94.316 251.168 94.832C251.456 95.336 251.828 95.72 252.284 95.984C252.752 96.248 253.244 96.38 253.76 96.38C254.288 96.38 254.78 96.248 255.236 95.984C255.704 95.708 256.076 95.312 256.352 94.796C256.64 94.28 256.784 93.68 256.784 92.996ZM269.883 88.082V98H267.831V96.83C267.507 97.238 267.081 97.562 266.553 97.802C266.037 98.03 265.485 98.144 264.897 98.144C264.117 98.144 263.415 97.982 262.791 97.658C262.179 97.334 261.693 96.854 261.333 96.218C260.985 95.582 260.811 94.814 260.811 93.914V88.082H262.845V93.608C262.845 94.496 263.067 95.18 263.511 95.66C263.955 96.128 264.561 96.362 265.329 96.362C266.097 96.362 266.703 96.128 267.147 95.66C267.603 95.18 267.831 94.496 267.831 93.608V88.082H269.883ZM271.906 92.996C271.906 92 272.11 91.118 272.518 90.35C272.938 89.582 273.502 88.988 274.21 88.568C274.93 88.136 275.728 87.92 276.604 87.92C277.252 87.92 277.888 88.064 278.512 88.352C279.148 88.628 279.652 89 280.024 89.468V84.68H282.094V98H280.024V96.506C279.688 96.986 279.22 97.382 278.62 97.694C278.032 98.006 277.354 98.162 276.586 98.162C275.722 98.162 274.93 97.946 274.21 97.514C273.502 97.07 272.938 96.458 272.518 95.678C272.11 94.886 271.906 93.992 271.906 92.996ZM280.024 93.032C280.024 92.348 279.88 91.754 279.592 91.25C279.316 90.746 278.95 90.362 278.494 90.098C278.038 89.834 277.546 89.702 277.018 89.702C276.49 89.702 275.998 89.834 275.542 90.098C275.086 90.35 274.714 90.728 274.426 91.232C274.15 91.724 274.012 92.312 274.012 92.996C274.012 93.68 274.15 94.28 274.426 94.796C274.714 95.312 275.086 95.708 275.542 95.984C276.01 96.248 276.502 96.38 277.018 96.38C277.546 96.38 278.038 96.248 278.494 95.984C278.95 95.72 279.316 95.336 279.592 94.832C279.88 94.316 280.024 93.716 280.024 93.032ZM288.785 87.92C289.553 87.92 290.231 88.076 290.819 88.388C291.419 88.688 291.887 89.066 292.223 89.522V88.082H294.293V98.162C294.293 99.074 294.101 99.884 293.717 100.592C293.333 101.312 292.775 101.876 292.043 102.284C291.323 102.692 290.459 102.896 289.451 102.896C288.107 102.896 286.991 102.578 286.103 101.942C285.215 101.318 284.711 100.466 284.591 99.386H286.625C286.781 99.902 287.111 100.316 287.615 100.628C288.131 100.952 288.743 101.114 289.451 101.114C290.279 101.114 290.945 100.862 291.449 100.358C291.965 99.854 292.223 99.122 292.223 98.162V96.506C291.875 96.974 291.401 97.37 290.801 97.694C290.213 98.006 289.541 98.162 288.785 98.162C287.921 98.162 287.129 97.946 286.409 97.514C285.701 97.07 285.137 96.458 284.717 95.678C284.309 94.886 284.105 93.992 284.105 92.996C284.105 92 284.309 91.118 284.717 90.35C285.137 89.582 285.701 88.988 286.409 88.568C287.129 88.136 287.921 87.92 288.785 87.92ZM292.223 93.032C292.223 92.348 292.079 91.754 291.791 91.25C291.515 90.746 291.149 90.362 290.693 90.098C290.237 89.834 289.745 89.702 289.217 89.702C288.689 89.702 288.197 89.834 287.741 90.098C287.285 90.35 286.913 90.728 286.625 91.232C286.349 91.724 286.211 92.312 286.211 92.996C286.211 93.68 286.349 94.28 286.625 94.796C286.913 95.312 287.285 95.708 287.741 95.984C288.209 96.248 288.701 96.38 289.217 96.38C289.745 96.38 290.237 96.248 290.693 95.984C291.149 95.72 291.515 95.336 291.791 94.832C292.079 94.316 292.223 93.716 292.223 93.032ZM306.079 92.798C306.079 93.17 306.055 93.506 306.007 93.806H298.429C298.489 94.598 298.783 95.234 299.311 95.714C299.839 96.194 300.487 96.434 301.255 96.434C302.359 96.434 303.139 95.972 303.595 95.048H305.809C305.509 95.96 304.963 96.71 304.171 97.298C303.391 97.874 302.419 98.162 301.255 98.162C300.307 98.162 299.455 97.952 298.699 97.532C297.955 97.1 297.367 96.5 296.935 95.732C296.515 94.952 296.305 94.052 296.305 93.032C296.305 92.012 296.509 91.118 296.917 90.35C297.337 89.57 297.919 88.97 298.663 88.55C299.419 88.13 300.283 87.92 301.255 87.92C302.191 87.92 303.025 88.124 303.757 88.532C304.489 88.94 305.059 89.516 305.467 90.26C305.875 90.992 306.079 91.838 306.079 92.798ZM303.937 92.15C303.925 91.394 303.655 90.788 303.127 90.332C302.599 89.876 301.945 89.648 301.165 89.648C300.457 89.648 299.851 89.876 299.347 90.332C298.843 90.776 298.543 91.382 298.447 92.15H303.937ZM310.492 89.756V95.246C310.492 95.618 310.576 95.888 310.744 96.056C310.924 96.212 311.224 96.29 311.644 96.29H312.904V98H311.284C310.36 98 309.652 97.784 309.16 97.352C308.668 96.92 308.422 96.218 308.422 95.246V89.756H307.252V88.082H308.422V85.616H310.492V88.082H312.904V89.756H310.492ZM317.045 95.534L314.867 100.502H313.535L314.813 95.534H317.045ZM324.558 86.768C324.186 86.768 323.874 86.642 323.622 86.39C323.37 86.138 323.244 85.826 323.244 85.454C323.244 85.082 323.37 84.77 323.622 84.518C323.874 84.266 324.186 84.14 324.558 84.14C324.918 84.14 325.224 84.266 325.476 84.518C325.728 84.77 325.854 85.082 325.854 85.454C325.854 85.826 325.728 86.138 325.476 86.39C325.224 86.642 324.918 86.768 324.558 86.768ZM325.566 88.082V98H323.514V88.082H325.566ZM330.654 89.756V95.246C330.654 95.618 330.738 95.888 330.906 96.056C331.086 96.212 331.386 96.29 331.806 96.29H333.066V98H331.446C330.522 98 329.814 97.784 329.322 97.352C328.83 96.92 328.584 96.218 328.584 95.246V89.756H327.414V88.082H328.584V85.616H330.654V88.082H333.066V89.756H330.654ZM336.073 83.654L335.857 87.344H334.453L334.219 83.654H336.073ZM341.651 98.162C340.871 98.162 340.169 98.024 339.545 97.748C338.933 97.46 338.447 97.076 338.087 96.596C337.727 96.104 337.535 95.558 337.511 94.958H339.635C339.671 95.378 339.869 95.732 340.229 96.02C340.601 96.296 341.063 96.434 341.615 96.434C342.191 96.434 342.635 96.326 342.947 96.11C343.271 95.882 343.433 95.594 343.433 95.246C343.433 94.874 343.253 94.598 342.893 94.418C342.545 94.238 341.987 94.04 341.219 93.824C340.475 93.62 339.869 93.422 339.401 93.23C338.933 93.038 338.525 92.744 338.177 92.348C337.841 91.952 337.673 91.43 337.673 90.782C337.673 90.254 337.829 89.774 338.141 89.342C338.453 88.898 338.897 88.55 339.473 88.298C340.061 88.046 340.733 87.92 341.489 87.92C342.617 87.92 343.523 88.208 344.207 88.784C344.903 89.348 345.275 90.122 345.323 91.106H343.271C343.235 90.662 343.055 90.308 342.731 90.044C342.407 89.78 341.969 89.648 341.417 89.648C340.877 89.648 340.463 89.75 340.175 89.954C339.887 90.158 339.743 90.428 339.743 90.764C339.743 91.028 339.839 91.25 340.031 91.43C340.223 91.61 340.457 91.754 340.733 91.862C341.009 91.958 341.417 92.084 341.957 92.24C342.677 92.432 343.265 92.63 343.721 92.834C344.189 93.026 344.591 93.314 344.927 93.698C345.263 94.082 345.437 94.592 345.449 95.228C345.449 95.792 345.293 96.296 344.981 96.74C344.669 97.184 344.225 97.532 343.649 97.784C343.085 98.036 342.419 98.162 341.651 98.162ZM357.472 87.92C358.228 87.92 358.9 88.082 359.488 88.406C360.088 88.73 360.556 89.21 360.892 89.846C361.24 90.482 361.414 91.25 361.414 92.15V98H359.38V92.456C359.38 91.568 359.158 90.89 358.714 90.422C358.27 89.942 357.664 89.702 356.896 89.702C356.128 89.702 355.516 89.942 355.06 90.422C354.616 90.89 354.394 91.568 354.394 92.456V98H352.342V84.68H354.394V89.234C354.742 88.814 355.18 88.49 355.708 88.262C356.248 88.034 356.836 87.92 357.472 87.92ZM363.348 92.996C363.348 92 363.552 91.118 363.96 90.35C364.38 89.582 364.944 88.988 365.652 88.568C366.372 88.136 367.164 87.92 368.028 87.92C368.808 87.92 369.486 88.076 370.062 88.388C370.65 88.688 371.118 89.066 371.466 89.522V88.082H373.536V98H371.466V96.524C371.118 96.992 370.644 97.382 370.044 97.694C369.444 98.006 368.76 98.162 367.992 98.162C367.14 98.162 366.36 97.946 365.652 97.514C364.944 97.07 364.38 96.458 363.96 95.678C363.552 94.886 363.348 93.992 363.348 92.996ZM371.466 93.032C371.466 92.348 371.322 91.754 371.034 91.25C370.758 90.746 370.392 90.362 369.936 90.098C369.48 89.834 368.988 89.702 368.46 89.702C367.932 89.702 367.44 89.834 366.984 90.098C366.528 90.35 366.156 90.728 365.868 91.232C365.592 91.724 365.454 92.312 365.454 92.996C365.454 93.68 365.592 94.28 365.868 94.796C366.156 95.312 366.528 95.708 366.984 95.984C367.452 96.248 367.944 96.38 368.46 96.38C368.988 96.38 369.48 96.248 369.936 95.984C370.392 95.72 370.758 95.336 371.034 94.832C371.322 94.316 371.466 93.716 371.466 93.032ZM378.283 89.522C378.583 89.018 378.979 88.628 379.471 88.352C379.975 88.064 380.569 87.92 381.253 87.92V90.044H380.731C379.927 90.044 379.315 90.248 378.895 90.656C378.487 91.064 378.283 91.772 378.283 92.78V98H376.231V88.082H378.283V89.522ZM382.455 92.996C382.455 92 382.659 91.118 383.067 90.35C383.487 89.582 384.051 88.988 384.759 88.568C385.479 88.136 386.277 87.92 387.153 87.92C387.801 87.92 388.437 88.064 389.061 88.352C389.697 88.628 390.201 89 390.573 89.468V84.68H392.643V98H390.573V96.506C390.237 96.986 389.769 97.382 389.169 97.694C388.581 98.006 387.903 98.162 387.135 98.162C386.271 98.162 385.479 97.946 384.759 97.514C384.051 97.07 383.487 96.458 383.067 95.678C382.659 94.886 382.455 93.992 382.455 92.996ZM390.573 93.032C390.573 92.348 390.429 91.754 390.141 91.25C389.865 90.746 389.499 90.362 389.043 90.098C388.587 89.834 388.095 89.702 387.567 89.702C387.039 89.702 386.547 89.834 386.091 90.098C385.635 90.35 385.263 90.728 384.975 91.232C384.699 91.724 384.561 92.312 384.561 92.996C384.561 93.68 384.699 94.28 384.975 94.796C385.263 95.312 385.635 95.708 386.091 95.984C386.559 96.248 387.051 96.38 387.567 96.38C388.095 96.38 388.587 96.248 389.043 95.984C389.499 95.72 389.865 95.336 390.141 94.832C390.429 94.316 390.573 93.716 390.573 93.032ZM402.408 89.756V95.246C402.408 95.618 402.492 95.888 402.66 96.056C402.84 96.212 403.14 96.29 403.56 96.29H404.82V98H403.2C402.276 98 401.568 97.784 401.076 97.352C400.584 96.92 400.338 96.218 400.338 95.246V89.756H399.168V88.082H400.338V85.616H402.408V88.082H404.82V89.756H402.408ZM411.013 98.162C410.077 98.162 409.231 97.952 408.475 97.532C407.719 97.1 407.125 96.5 406.693 95.732C406.261 94.952 406.045 94.052 406.045 93.032C406.045 92.024 406.267 91.13 406.711 90.35C407.155 89.57 407.761 88.97 408.529 88.55C409.297 88.13 410.155 87.92 411.103 87.92C412.051 87.92 412.909 88.13 413.677 88.55C414.445 88.97 415.051 89.57 415.495 90.35C415.939 91.13 416.161 92.024 416.161 93.032C416.161 94.04 415.933 94.934 415.477 95.714C415.021 96.494 414.397 97.1 413.605 97.532C412.825 97.952 411.961 98.162 411.013 98.162ZM411.013 96.38C411.541 96.38 412.033 96.254 412.489 96.002C412.957 95.75 413.335 95.372 413.623 94.868C413.911 94.364 414.055 93.752 414.055 93.032C414.055 92.312 413.917 91.706 413.641 91.214C413.365 90.71 412.999 90.332 412.543 90.08C412.087 89.828 411.595 89.702 411.067 89.702C410.539 89.702 410.047 89.828 409.591 90.08C409.147 90.332 408.793 90.71 408.529 91.214C408.265 91.706 408.133 92.312 408.133 93.032C408.133 94.1 408.403 94.928 408.943 95.516C409.495 96.092 410.185 96.38 411.013 96.38ZM121.666 120.996C121.666 120 121.87 119.118 122.278 118.35C122.698 117.582 123.262 116.988 123.97 116.568C124.69 116.136 125.482 115.92 126.346 115.92C127.126 115.92 127.804 116.076 128.38 116.388C128.968 116.688 129.436 117.066 129.784 117.522V116.082H131.854V126H129.784V124.524C129.436 124.992 128.962 125.382 128.362 125.694C127.762 126.006 127.078 126.162 126.31 126.162C125.458 126.162 124.678 125.946 123.97 125.514C123.262 125.07 122.698 124.458 122.278 123.678C121.87 122.886 121.666 121.992 121.666 120.996ZM129.784 121.032C129.784 120.348 129.64 119.754 129.352 119.25C129.076 118.746 128.71 118.362 128.254 118.098C127.798 117.834 127.306 117.702 126.778 117.702C126.25 117.702 125.758 117.834 125.302 118.098C124.846 118.35 124.474 118.728 124.186 119.232C123.91 119.724 123.772 120.312 123.772 120.996C123.772 121.68 123.91 122.28 124.186 122.796C124.474 123.312 124.846 123.708 125.302 123.984C125.77 124.248 126.262 124.38 126.778 124.38C127.306 124.38 127.798 124.248 128.254 123.984C128.71 123.72 129.076 123.336 129.352 122.832C129.64 122.316 129.784 121.716 129.784 121.032ZM136.601 117.54C136.949 117.084 137.423 116.7 138.023 116.388C138.623 116.076 139.301 115.92 140.057 115.92C140.921 115.92 141.707 116.136 142.415 116.568C143.135 116.988 143.699 117.582 144.107 118.35C144.515 119.118 144.719 120 144.719 120.996C144.719 121.992 144.515 122.886 144.107 123.678C143.699 124.458 143.135 125.07 142.415 125.514C141.707 125.946 140.921 126.162 140.057 126.162C139.301 126.162 138.629 126.012 138.041 125.712C137.453 125.4 136.973 125.016 136.601 124.56V130.716H134.549V116.082H136.601V117.54ZM142.631 120.996C142.631 120.312 142.487 119.724 142.199 119.232C141.923 118.728 141.551 118.35 141.083 118.098C140.627 117.834 140.135 117.702 139.607 117.702C139.091 117.702 138.599 117.834 138.131 118.098C137.675 118.362 137.303 118.746 137.015 119.25C136.739 119.754 136.601 120.348 136.601 121.032C136.601 121.716 136.739 122.316 137.015 122.832C137.303 123.336 137.675 123.72 138.131 123.984C138.599 124.248 139.091 124.38 139.607 124.38C140.135 124.38 140.627 124.248 141.083 123.984C141.551 123.708 141.923 123.312 142.199 122.796C142.487 122.28 142.631 121.68 142.631 120.996ZM148.8 117.54C149.148 117.084 149.622 116.7 150.222 116.388C150.822 116.076 151.5 115.92 152.256 115.92C153.12 115.92 153.906 116.136 154.614 116.568C155.334 116.988 155.898 117.582 156.306 118.35C156.714 119.118 156.918 120 156.918 120.996C156.918 121.992 156.714 122.886 156.306 123.678C155.898 124.458 155.334 125.07 154.614 125.514C153.906 125.946 153.12 126.162 152.256 126.162C151.5 126.162 150.828 126.012 150.24 125.712C149.652 125.4 149.172 125.016 148.8 124.56V130.716H146.748V116.082H148.8V117.54ZM154.83 120.996C154.83 120.312 154.686 119.724 154.398 119.232C154.122 118.728 153.75 118.35 153.282 118.098C152.826 117.834 152.334 117.702 151.806 117.702C151.29 117.702 150.798 117.834 150.33 118.098C149.874 118.362 149.502 118.746 149.214 119.25C148.938 119.754 148.8 120.348 148.8 121.032C148.8 121.716 148.938 122.316 149.214 122.832C149.502 123.336 149.874 123.72 150.33 123.984C150.798 124.248 151.29 124.38 151.806 124.38C152.334 124.38 152.826 124.248 153.282 123.984C153.75 123.708 154.122 123.312 154.398 122.796C154.686 122.28 154.83 121.68 154.83 120.996ZM161 117.522C161.3 117.018 161.696 116.628 162.188 116.352C162.692 116.064 163.286 115.92 163.97 115.92V118.044H163.448C162.644 118.044 162.032 118.248 161.612 118.656C161.204 119.064 161 119.772 161 120.78V126H158.948V116.082H161V117.522ZM170.158 126.162C169.222 126.162 168.376 125.952 167.62 125.532C166.864 125.1 166.27 124.5 165.838 123.732C165.406 122.952 165.19 122.052 165.19 121.032C165.19 120.024 165.412 119.13 165.856 118.35C166.3 117.57 166.906 116.97 167.674 116.55C168.442 116.13 169.3 115.92 170.248 115.92C171.196 115.92 172.054 116.13 172.822 116.55C173.59 116.97 174.196 117.57 174.64 118.35C175.084 119.13 175.306 120.024 175.306 121.032C175.306 122.04 175.078 122.934 174.622 123.714C174.166 124.494 173.542 125.1 172.75 125.532C171.97 125.952 171.106 126.162 170.158 126.162ZM170.158 124.38C170.686 124.38 171.178 124.254 171.634 124.002C172.102 123.75 172.48 123.372 172.768 122.868C173.056 122.364 173.2 121.752 173.2 121.032C173.2 120.312 173.062 119.706 172.786 119.214C172.51 118.71 172.144 118.332 171.688 118.08C171.232 117.828 170.74 117.702 170.212 117.702C169.684 117.702 169.192 117.828 168.736 118.08C168.292 118.332 167.938 118.71 167.674 119.214C167.41 119.706 167.278 120.312 167.278 121.032C167.278 122.1 167.548 122.928 168.088 123.516C168.64 124.092 169.33 124.38 170.158 124.38ZM176.65 120.996C176.65 120 176.854 119.118 177.262 118.35C177.682 117.582 178.246 116.988 178.954 116.568C179.674 116.136 180.466 115.92 181.33 115.92C182.11 115.92 182.788 116.076 183.364 116.388C183.952 116.688 184.42 117.066 184.768 117.522V116.082H186.838V126H184.768V124.524C184.42 124.992 183.946 125.382 183.346 125.694C182.746 126.006 182.062 126.162 181.294 126.162C180.442 126.162 179.662 125.946 178.954 125.514C178.246 125.07 177.682 124.458 177.262 123.678C176.854 122.886 176.65 121.992 176.65 120.996ZM184.768 121.032C184.768 120.348 184.624 119.754 184.336 119.25C184.06 118.746 183.694 118.362 183.238 118.098C182.782 117.834 182.29 117.702 181.762 117.702C181.234 117.702 180.742 117.834 180.286 118.098C179.83 118.35 179.458 118.728 179.17 119.232C178.894 119.724 178.756 120.312 178.756 120.996C178.756 121.68 178.894 122.28 179.17 122.796C179.458 123.312 179.83 123.708 180.286 123.984C180.754 124.248 181.246 124.38 181.762 124.38C182.29 124.38 182.782 124.248 183.238 123.984C183.694 123.72 184.06 123.336 184.336 122.832C184.624 122.316 184.768 121.716 184.768 121.032ZM188.85 121.032C188.85 120.012 189.054 119.118 189.462 118.35C189.882 117.57 190.458 116.97 191.19 116.55C191.922 116.13 192.762 115.92 193.71 115.92C194.91 115.92 195.9 116.208 196.68 116.784C197.472 117.348 198.006 118.158 198.282 119.214H196.068C195.888 118.722 195.6 118.338 195.204 118.062C194.808 117.786 194.31 117.648 193.71 117.648C192.87 117.648 192.198 117.948 191.694 118.548C191.202 119.136 190.956 119.964 190.956 121.032C190.956 122.1 191.202 122.934 191.694 123.534C192.198 124.134 192.87 124.434 193.71 124.434C194.898 124.434 195.684 123.912 196.068 122.868H198.282C197.994 123.876 197.454 124.68 196.662 125.28C195.87 125.868 194.886 126.162 193.71 126.162C192.762 126.162 191.922 125.952 191.19 125.532C190.458 125.1 189.882 124.5 189.462 123.732C189.054 122.952 188.85 122.052 188.85 121.032ZM205.457 115.92C206.213 115.92 206.885 116.082 207.473 116.406C208.073 116.73 208.541 117.21 208.877 117.846C209.225 118.482 209.399 119.25 209.399 120.15V126H207.365V120.456C207.365 119.568 207.143 118.89 206.699 118.422C206.255 117.942 205.649 117.702 204.881 117.702C204.113 117.702 203.501 117.942 203.045 118.422C202.601 118.89 202.379 119.568 202.379 120.456V126H200.327V112.68H202.379V117.234C202.727 116.814 203.165 116.49 203.693 116.262C204.233 116.034 204.821 115.92 205.457 115.92ZM220.526 124.164L223.334 116.082H225.512L221.732 126H219.284L215.522 116.082H217.718L220.526 124.164ZM236.153 120.798C236.153 121.17 236.129 121.506 236.081 121.806H228.503C228.563 122.598 228.857 123.234 229.385 123.714C229.913 124.194 230.561 124.434 231.329 124.434C232.433 124.434 233.213 123.972 233.669 123.048H235.883C235.583 123.96 235.037 124.71 234.245 125.298C233.465 125.874 232.493 126.162 231.329 126.162C230.381 126.162 229.529 125.952 228.773 125.532C228.029 125.1 227.441 124.5 227.009 123.732C226.589 122.952 226.379 122.052 226.379 121.032C226.379 120.012 226.583 119.118 226.991 118.35C227.411 117.57 227.993 116.97 228.737 116.55C229.493 116.13 230.357 115.92 231.329 115.92C232.265 115.92 233.099 116.124 233.831 116.532C234.563 116.94 235.133 117.516 235.541 118.26C235.949 118.992 236.153 119.838 236.153 120.798ZM234.011 120.15C233.999 119.394 233.729 118.788 233.201 118.332C232.673 117.876 232.019 117.648 231.239 117.648C230.531 117.648 229.925 117.876 229.421 118.332C228.917 118.776 228.617 119.382 228.521 120.15H234.011ZM243.176 115.92C243.956 115.92 244.652 116.082 245.264 116.406C245.888 116.73 246.374 117.21 246.722 117.846C247.07 118.482 247.244 119.25 247.244 120.15V126H245.21V120.456C245.21 119.568 244.988 118.89 244.544 118.422C244.1 117.942 243.494 117.702 242.726 117.702C241.958 117.702 241.346 117.942 240.89 118.422C240.446 118.89 240.224 119.568 240.224 120.456V126H238.172V116.082H240.224V117.216C240.56 116.808 240.986 116.49 241.502 116.262C242.03 116.034 242.588 115.92 243.176 115.92ZM252.256 117.756V123.246C252.256 123.618 252.34 123.888 252.508 124.056C252.688 124.212 252.988 124.29 253.408 124.29H254.668V126H253.048C252.124 126 251.416 125.784 250.924 125.352C250.432 124.92 250.186 124.218 250.186 123.246V117.756H249.016V116.082H250.186V113.616H252.256V116.082H254.668V117.756H252.256ZM265.541 116.082V126H263.489V124.83C263.165 125.238 262.739 125.562 262.211 125.802C261.695 126.03 261.143 126.144 260.555 126.144C259.775 126.144 259.073 125.982 258.449 125.658C257.837 125.334 257.351 124.854 256.991 124.218C256.643 123.582 256.469 122.814 256.469 121.914V116.082H258.503V121.608C258.503 122.496 258.725 123.18 259.169 123.66C259.613 124.128 260.219 124.362 260.987 124.362C261.755 124.362 262.361 124.128 262.805 123.66C263.261 123.18 263.489 122.496 263.489 121.608V116.082H265.541ZM270.3 117.522C270.6 117.018 270.996 116.628 271.488 116.352C271.992 116.064 272.586 115.92 273.27 115.92V118.044H272.748C271.944 118.044 271.332 118.248 270.912 118.656C270.504 119.064 270.3 119.772 270.3 120.78V126H268.248V116.082H270.3V117.522ZM284.247 120.798C284.247 121.17 284.223 121.506 284.175 121.806H276.597C276.657 122.598 276.951 123.234 277.479 123.714C278.007 124.194 278.655 124.434 279.423 124.434C280.527 124.434 281.307 123.972 281.763 123.048H283.977C283.677 123.96 283.131 124.71 282.339 125.298C281.559 125.874 280.587 126.162 279.423 126.162C278.475 126.162 277.623 125.952 276.867 125.532C276.123 125.1 275.535 124.5 275.103 123.732C274.683 122.952 274.473 122.052 274.473 121.032C274.473 120.012 274.677 119.118 275.085 118.35C275.505 117.57 276.087 116.97 276.831 116.55C277.587 116.13 278.451 115.92 279.423 115.92C280.359 115.92 281.193 116.124 281.925 116.532C282.657 116.94 283.227 117.516 283.635 118.26C284.043 118.992 284.247 119.838 284.247 120.798ZM282.105 120.15C282.093 119.394 281.823 118.788 281.295 118.332C280.767 117.876 280.113 117.648 279.333 117.648C278.625 117.648 278.019 117.876 277.515 118.332C277.011 118.776 276.711 119.382 276.615 120.15H282.105ZM291.986 114.768C291.614 114.768 291.302 114.642 291.05 114.39C290.798 114.138 290.672 113.826 290.672 113.454C290.672 113.082 290.798 112.77 291.05 112.518C291.302 112.266 291.614 112.14 291.986 112.14C292.346 112.14 292.652 112.266 292.904 112.518C293.156 112.77 293.282 113.082 293.282 113.454C293.282 113.826 293.156 114.138 292.904 114.39C292.652 114.642 292.346 114.768 291.986 114.768ZM292.994 116.082V126H290.942V116.082H292.994ZM300.692 115.92C301.472 115.92 302.168 116.082 302.78 116.406C303.404 116.73 303.89 117.21 304.238 117.846C304.586 118.482 304.76 119.25 304.76 120.15V126H302.726V120.456C302.726 119.568 302.504 118.89 302.06 118.422C301.616 117.942 301.01 117.702 300.242 117.702C299.474 117.702 298.862 117.942 298.406 118.422C297.962 118.89 297.74 119.568 297.74 120.456V126H295.688V116.082H297.74V117.216C298.076 116.808 298.502 116.49 299.018 116.262C299.546 116.034 300.104 115.92 300.692 115.92ZM311.211 124.164L314.019 116.082H316.197L312.417 126H309.969L306.207 116.082H308.403L311.211 124.164ZM326.838 120.798C326.838 121.17 326.814 121.506 326.766 121.806H319.188C319.248 122.598 319.542 123.234 320.07 123.714C320.598 124.194 321.246 124.434 322.014 124.434C323.118 124.434 323.898 123.972 324.354 123.048H326.568C326.268 123.96 325.722 124.71 324.93 125.298C324.15 125.874 323.178 126.162 322.014 126.162C321.066 126.162 320.214 125.952 319.458 125.532C318.714 125.1 318.126 124.5 317.694 123.732C317.274 122.952 317.064 122.052 317.064 121.032C317.064 120.012 317.268 119.118 317.676 118.35C318.096 117.57 318.678 116.97 319.422 116.55C320.178 116.13 321.042 115.92 322.014 115.92C322.95 115.92 323.784 116.124 324.516 116.532C325.248 116.94 325.818 117.516 326.226 118.26C326.634 118.992 326.838 119.838 326.838 120.798ZM324.696 120.15C324.684 119.394 324.414 118.788 323.886 118.332C323.358 117.876 322.704 117.648 321.924 117.648C321.216 117.648 320.61 117.876 320.106 118.332C319.602 118.776 319.302 119.382 319.206 120.15H324.696ZM332.458 126.162C331.678 126.162 330.976 126.024 330.352 125.748C329.74 125.46 329.254 125.076 328.894 124.596C328.534 124.104 328.342 123.558 328.318 122.958H330.442C330.478 123.378 330.676 123.732 331.036 124.02C331.408 124.296 331.87 124.434 332.422 124.434C332.998 124.434 333.442 124.326 333.754 124.11C334.078 123.882 334.24 123.594 334.24 123.246C334.24 122.874 334.06 122.598 333.7 122.418C333.352 122.238 332.794 122.04 332.026 121.824C331.282 121.62 330.676 121.422 330.208 121.23C329.74 121.038 329.332 120.744 328.984 120.348C328.648 119.952 328.48 119.43 328.48 118.782C328.48 118.254 328.636 117.774 328.948 117.342C329.26 116.898 329.704 116.55 330.28 116.298C330.868 116.046 331.54 115.92 332.296 115.92C333.424 115.92 334.33 116.208 335.014 116.784C335.71 117.348 336.082 118.122 336.13 119.106H334.078C334.042 118.662 333.862 118.308 333.538 118.044C333.214 117.78 332.776 117.648 332.224 117.648C331.684 117.648 331.27 117.75 330.982 117.954C330.694 118.158 330.55 118.428 330.55 118.764C330.55 119.028 330.646 119.25 330.838 119.43C331.03 119.61 331.264 119.754 331.54 119.862C331.816 119.958 332.224 120.084 332.764 120.24C333.484 120.432 334.072 120.63 334.528 120.834C334.996 121.026 335.398 121.314 335.734 121.698C336.07 122.082 336.244 122.592 336.256 123.228C336.256 123.792 336.1 124.296 335.788 124.74C335.476 125.184 335.032 125.532 334.456 125.784C333.892 126.036 333.226 126.162 332.458 126.162ZM340.867 117.756V123.246C340.867 123.618 340.951 123.888 341.119 124.056C341.299 124.212 341.599 124.29 342.019 124.29H343.279V126H341.659C340.735 126 340.027 125.784 339.535 125.352C339.043 124.92 338.797 124.218 338.797 123.246V117.756H337.627V116.082H338.797V113.616H340.867V116.082H343.279V117.756H340.867ZM349.472 126.162C348.536 126.162 347.69 125.952 346.934 125.532C346.178 125.1 345.584 124.5 345.152 123.732C344.72 122.952 344.504 122.052 344.504 121.032C344.504 120.024 344.726 119.13 345.17 118.35C345.614 117.57 346.22 116.97 346.988 116.55C347.756 116.13 348.614 115.92 349.562 115.92C350.51 115.92 351.368 116.13 352.136 116.55C352.904 116.97 353.51 117.57 353.954 118.35C354.398 119.13 354.62 120.024 354.62 121.032C354.62 122.04 354.392 122.934 353.936 123.714C353.48 124.494 352.856 125.1 352.064 125.532C351.284 125.952 350.42 126.162 349.472 126.162ZM349.472 124.38C350 124.38 350.492 124.254 350.948 124.002C351.416 123.75 351.794 123.372 352.082 122.868C352.37 122.364 352.514 121.752 352.514 121.032C352.514 120.312 352.376 119.706 352.1 119.214C351.824 118.71 351.458 118.332 351.002 118.08C350.546 117.828 350.054 117.702 349.526 117.702C348.998 117.702 348.506 117.828 348.05 118.08C347.606 118.332 347.252 118.71 346.988 119.214C346.724 119.706 346.592 120.312 346.592 121.032C346.592 122.1 346.862 122.928 347.402 123.516C347.954 124.092 348.644 124.38 349.472 124.38ZM358.701 117.522C359.001 117.018 359.397 116.628 359.889 116.352C360.393 116.064 360.987 115.92 361.671 115.92V118.044H361.149C360.345 118.044 359.733 118.248 359.313 118.656C358.905 119.064 358.701 119.772 358.701 120.78V126H356.649V116.082H358.701V117.522ZM367.157 126.162C366.377 126.162 365.675 126.024 365.051 125.748C364.439 125.46 363.953 125.076 363.593 124.596C363.233 124.104 363.041 123.558 363.017 122.958H365.141C365.177 123.378 365.375 123.732 365.735 124.02C366.107 124.296 366.569 124.434 367.121 124.434C367.697 124.434 368.141 124.326 368.453 124.11C368.777 123.882 368.939 123.594 368.939 123.246C368.939 122.874 368.759 122.598 368.399 122.418C368.051 122.238 367.493 122.04 366.725 121.824C365.981 121.62 365.375 121.422 364.907 121.23C364.439 121.038 364.031 120.744 363.683 120.348C363.347 119.952 363.179 119.43 363.179 118.782C363.179 118.254 363.335 117.774 363.647 117.342C363.959 116.898 364.403 116.55 364.979 116.298C365.567 116.046 366.239 115.92 366.995 115.92C368.123 115.92 369.029 116.208 369.713 116.784C370.409 117.348 370.781 118.122 370.829 119.106H368.777C368.741 118.662 368.561 118.308 368.237 118.044C367.913 117.78 367.475 117.648 366.923 117.648C366.383 117.648 365.969 117.75 365.681 117.954C365.393 118.158 365.249 118.428 365.249 118.764C365.249 119.028 365.345 119.25 365.537 119.43C365.729 119.61 365.963 119.754 366.239 119.862C366.515 119.958 366.923 120.084 367.463 120.24C368.183 120.432 368.771 120.63 369.227 120.834C369.695 121.026 370.097 121.314 370.433 121.698C370.769 122.082 370.943 122.592 370.955 123.228C370.955 123.792 370.799 124.296 370.487 124.74C370.175 125.184 369.731 125.532 369.155 125.784C368.591 126.036 367.925 126.162 367.157 126.162Z" fill="#23155B"/>
</g>
<defs>
<filter id="filter0_dd_54_1859" x="0" y="0" width="700" height="240" filterUnits="userSpaceOnUse" color-interpolation-filters="sRGB">
<feFlood flood-opacity="0" result="BackgroundImageFix"/>
<feColorMatrix in="SourceAlpha" type="matrix" values="0 0 0 0 0 0 0 0 0 0 0 0 0 0 0 0 0 0 127 0" result="hardAlpha"/>
<feMorphology radius="4" operator="erode" in="SourceAlpha" result="effect1_dropShadow_54_1859"/>
<feOffset dy="14"/>
<feGaussianBlur stdDeviation="32"/>
<feColorMatrix type="matrix" values="0 0 0 0 0.137255 0 0 0 0 0.0823529 0 0 0 0 0.356863 0 0 0 0.05 0"/>
<feBlend mode="normal" in2="BackgroundImageFix" result="effect1_dropShadow_54_1859"/>
<feColorMatrix in="SourceAlpha" type="matrix" values="0 0 0 0 0 0 0 0 0 0 0 0 0 0 0 0 0 0 127 0" result="hardAlpha"/>
<feMorphology radius="6" operator="erode" in="SourceAlpha" result="effect2_dropShadow_54_1859"/>
<feOffset dy="8"/>
<feGaussianBlur stdDeviation="6"/>
<feColorMatrix type="matrix" values="0 0 0 0 0.137255 0 0 0 0 0.0823529 0 0 0 0 0.356863 0 0 0 0.05 0"/>
<feBlend mode="normal" in2="effect1_dropShadow_54_1859" result="effect2_dropShadow_54_1859"/>
<feBlend mode="normal" in="SourceGraphic" in2="effect2_dropShadow_54_1859" result="shape"/>
</filter>
</defs>
</svg>
