<svg width="104" height="120" viewBox="0 0 104 120" fill="none" xmlns="http://www.w3.org/2000/svg">
<g clip-path="url(#clip0_814_219)">
<path d="M103.184 30.1218L51.5918 0.502197L0 30.1218V56.7113L11.937 49.8234V36.9757L51.5918 14.2097L91.2467 36.9757V42.0756L103.184 35.1863V30.1218Z" fill="#23155B"/>
<path d="M91.2466 82.5052L51.5917 105.271L11.9369 82.5052V71.1719L29.3446 61.1262L43.7861 69.462L56.8928 61.897L42.4498 53.5627L29.3431 45.9963L16.2365 53.5627L11.9412 56.0418L0.00415039 62.9311V89.3577L51.596 118.977L103.188 89.3577V62.7682L91.2508 69.6575L91.2466 82.5052Z" fill="#23155B"/>
<path d="M91.2465 48.3039L62.2908 65.0205L49.1841 72.5855L62.2908 80.152L75.3974 72.5855L91.2422 63.4409L103.179 56.5516V41.416L91.2465 48.3039Z" fill="#8053FF"/>
</g>
<defs>
<clipPath id="clip0_814_219">
<rect width="104" height="119" fill="white" transform="translate(0 0.5)"/>
</clipPath>
</defs>
</svg>
